<svg width="70" height="53" viewBox="0 0 70 53" fill="none" xmlns="http://www.w3.org/2000/svg">
<path d="M15.076 52.8799V48.0601C12.239 47.8401 9.90499 47.24 8.07599 46.27C6.28399 45.26 4.88399 44.1 3.87599 42.8C2.86799 41.4501 2.13999 40.1499 1.69199 38.8799C1.24399 37.5699 0.96399 36.5099 0.85199 35.6799C0.77699 34.8299 0.73999 34.3999 0.73999 34.3999H8.91599C8.91599 34.3999 8.95298 34.69 9.02798 35.29C9.13999 35.85 9.38298 36.5401 9.75598 37.3601C10.129 38.1901 10.727 38.9499 11.548 39.6599C12.407 40.3699 13.583 40.8699 15.076 41.1699V29.52L14.684 29.47C13.191 29.13 11.679 28.6999 10.148 28.1799C8.65498 27.6599 7.27298 26.9701 6.00398 26.1101C4.77198 25.2501 3.76398 24.15 2.97998 22.8C2.23298 21.46 1.85999 19.78 1.85999 17.76C1.85999 15.34 2.43898 13.27 3.59598 11.55C4.79098 9.79005 6.37699 8.4099 8.35599 7.3999C10.372 6.3999 12.612 5.78006 15.076 5.56006V0.800049H19.556V5.66992C21.983 5.92992 23.98 6.52996 25.548 7.45996C27.153 8.35996 28.423 9.4001 29.356 10.6001C30.289 11.7501 30.98 12.9101 31.428 14.0701C31.876 15.1901 32.156 16.1201 32.268 16.8701C32.417 17.6101 32.492 17.99 32.492 17.99H24.428C24.428 17.99 24.372 17.7601 24.26 17.3201C24.185 16.8701 23.98 16.3299 23.644 15.6899C23.345 15.0199 22.86 14.39 22.188 13.79C21.553 13.15 20.676 12.6899 19.556 12.3899V23.2L20.284 23.3601C21.553 23.6601 22.916 24.05 24.372 24.54C25.865 24.99 27.247 25.64 28.516 26.5C29.823 27.36 30.868 28.52 31.652 29.97C32.473 31.39 32.884 33.1801 32.884 35.3501C32.884 37.6601 32.324 39.7301 31.204 41.5601C30.121 43.3601 28.572 44.8099 26.556 45.9299C24.577 47.0499 22.244 47.74 19.556 48V52.8799H15.076ZM9.81198 17.4299C9.81198 18.6599 10.241 19.6499 11.1 20.3999C11.959 21.1099 13.284 21.6999 15.076 22.1899V12.1101C13.433 12.4101 12.145 13.04 11.212 14.01C10.279 14.98 9.81198 16.1199 9.81198 17.4299ZM24.876 35.52C24.876 34.13 24.409 33.0701 23.476 32.3201C22.58 31.5801 21.273 30.98 19.556 30.53V41.1699C21.161 40.8399 22.449 40.1599 23.42 39.1599C24.391 38.1499 24.876 36.93 24.876 35.52ZM53.963 48.0601C51.163 48.0601 48.774 47.61 46.795 46.72C44.817 45.82 43.193 44.68 41.923 43.3C40.691 41.92 39.777 40.48 39.179 38.99C38.619 37.46 38.339 36.06 38.339 34.79H46.347C46.347 34.79 46.403 35.11 46.515 35.74C46.665 36.37 46.982 37.0999 47.467 37.9199C47.953 38.7499 48.699 39.4701 49.707 40.1101C50.715 40.7401 52.078 41.0601 53.795 41.0601C55.513 41.0601 56.931 40.71 58.051 40C59.171 39.25 60.011 38.32 60.571 37.2C61.131 36.08 61.411 34.8999 61.411 33.6699C61.411 32.3999 61.131 31.2001 60.571 30.0801C60.011 28.9301 59.171 27.99 58.051 27.28C56.969 26.54 55.606 26.1599 53.963 26.1599C52.694 26.1599 51.649 26.37 50.827 26.78C50.006 27.15 49.353 27.6001 48.867 28.1201C48.382 28.6101 48.027 29.06 47.803 29.47C47.617 29.84 47.523 30.03 47.523 30.03H39.011L42.651 6.06006H67.067V13.5601H48.531L47.075 23.03H47.299C47.486 22.84 47.859 22.4699 48.419 21.9099C49.017 21.3499 49.913 20.8301 51.107 20.3401C52.302 19.8201 53.889 19.5601 55.867 19.5601C58.854 19.5601 61.393 20.2301 63.483 21.5701C65.574 22.9201 67.142 24.65 68.187 26.78C69.27 28.87 69.811 31.0899 69.811 33.4399C69.811 35.2699 69.475 37.05 68.803 38.76C68.169 40.48 67.198 42.05 65.891 43.47C64.585 44.85 62.942 45.9701 60.963 46.8301C58.985 47.6501 56.651 48.0601 53.963 48.0601Z" fill="#0C0047"/>
</svg>
