<svg width="36" height="31" viewBox="0 0 36 31" fill="none" xmlns="http://www.w3.org/2000/svg">
<path d="M8 28.42C8.69 28.42 9.25 27.86 9.25 27.17C9.25 26.48 8.69 25.92 8 25.92V28.42ZM9.66701 12.17V13.42C10.357 13.42 10.917 12.86 10.917 12.17H9.66701ZM26.333 12.17H25.083C25.083 12.86 25.643 13.42 26.333 13.42V12.17ZM28 25.92C27.31 25.92 26.75 26.48 26.75 27.17C26.75 27.86 27.31 28.42 28 28.42V25.92ZM8.83299 13.42H9.66701V10.92H8.83299V13.42ZM10.917 12.17V10.5H8.41701V12.17H10.917ZM25.083 10.5V12.17H27.583V10.5H25.083ZM26.333 13.42H27.167V10.92H26.333V13.42ZM33.417 19.67C33.417 21.49 32.86 23.07 31.933 24.16C31.022 25.24 29.704 25.92 28 25.92V28.42C30.438 28.42 32.454 27.42 33.841 25.78C35.211 24.16 35.917 21.98 35.917 19.67H33.417ZM18 3.42004C21.912 3.42004 25.083 6.59 25.083 10.5H27.583C27.583 5.21 23.293 0.920044 18 0.920044V3.42004ZM10.917 10.5C10.917 6.59 14.088 3.42004 18 3.42004V0.920044C12.707 0.920044 8.41701 5.21 8.41701 10.5H10.917ZM27.167 13.42C30.618 13.42 33.417 16.21 33.417 19.67H35.917C35.917 14.83 31.999 10.92 27.167 10.92V13.42ZM2.58299 19.67C2.58299 16.21 5.38199 13.42 8.83299 13.42V10.92C4.00099 10.92 0.0829926 14.83 0.0829926 19.67H2.58299ZM8 25.92C6.296 25.92 4.978 25.24 4.067 24.16C3.14 23.07 2.58299 21.49 2.58299 19.67H0.0829926C0.0829926 21.98 0.788997 24.16 2.159 25.78C3.546 27.42 5.562 28.42 8 28.42V25.92Z" fill="#6A4BFF"/>
<path d="M13 28V21.33C13 20.87 13.373 20.5 13.833 20.5H22.167C22.627 20.5 23 20.87 23 21.33V28C23 28.46 22.627 28.83 22.167 28.83H13.833C13.373 28.83 13 28.46 13 28Z" stroke="#6A4BFF" stroke-width="2.5" stroke-linecap="round" stroke-linejoin="round"/>
<path d="M14.667 20.5V18.83C14.667 16.99 16.159 15.5 18 15.5C19.841 15.5 21.333 16.99 21.333 18.83V20.5" stroke="#6A4BFF" stroke-width="2.5" stroke-linecap="round" stroke-linejoin="round"/>
</svg>

