<svg width="217" height="33" viewBox="0 0 217 33" fill="none" xmlns="http://www.w3.org/2000/svg">
<path fill-rule="evenodd" clip-rule="evenodd" d="M52.736 10.36C50.533 10.35 48.398 11.12 46.702 12.52V10.5799H41.191V32.04H46.92V18.3299C47.536 17.5199 48.323 16.87 49.223 16.41C50.123 15.95 51.115 15.7 52.125 15.67C52.907 15.62 53.689 15.74 54.423 16.01V10.5C53.866 10.4 53.301 10.36 52.736 10.36Z" fill="#152C5B"/>
<path fill-rule="evenodd" clip-rule="evenodd" d="M2.77699 25.49C4.40399 26.87 6.465 27.62 8.593 27.62C10.134 27.62 11.327 26.86 11.327 25.8C11.37 22.57 1.01801 23.7601 1.01801 16.8101C1.01801 12.7001 4.987 10.14 9.218 10.14C11.801 10.14 14.328 10.8901 16.488 12.3101L13.755 16.49C12.568 15.6 11.138 15.1 9.65401 15.04C8.07001 15.04 6.746 15.67 6.746 16.77C6.746 19.56 17.099 18.46 17.099 25.89C17.099 29.96 13.086 32.49 8.593 32.49C5.495 32.44 2.49 31.42 0 29.58L2.77699 25.49Z" fill="#152C5B"/>
<path fill-rule="evenodd" clip-rule="evenodd" d="M38.749 21.1C38.749 15.13 34.561 10.14 28.643 10.14C22.304 10.14 18.247 15.3599 18.247 21.3199C18.181 22.8099 18.426 24.2901 18.965 25.6801C19.505 27.0701 20.327 28.32 21.381 29.38C22.435 30.43 23.696 31.25 25.084 31.78C26.472 32.32 27.957 32.56 29.443 32.49C31.086 32.5 32.713 32.17 34.216 31.5C35.72 30.84 37.066 29.87 38.167 28.65L34.896 25.35C34.212 26.1 33.383 26.71 32.459 27.14C31.535 27.57 30.534 27.8 29.516 27.84C28.079 27.89 26.675 27.4 25.592 26.45C24.51 25.5 23.833 24.18 23.7 22.75H38.603C38.699 22.2 38.747 21.65 38.749 21.1ZM24.063 18.54C24.27 17.48 24.84 16.52 25.676 15.84C26.512 15.15 27.561 14.78 28.643 14.78C29.688 14.78 30.695 15.16 31.475 15.86C32.255 16.55 32.753 17.51 32.875 18.54H24.063Z" fill="#152C5B"/>
<path fill-rule="evenodd" clip-rule="evenodd" d="M68.075 23.6801L73.935 10.58H79.896L70.053 32.04H66.098L56.269 10.58H62.216L68.075 23.6801Z" fill="#152C5B"/>
<path fill-rule="evenodd" clip-rule="evenodd" d="M84.694 0.500019C85.419 0.510019 86.125 0.740043 86.722 1.15004C87.319 1.56004 87.782 2.14008 88.051 2.81008C88.321 3.48008 88.385 4.22007 88.237 4.93007C88.089 5.64007 87.734 6.29007 87.217 6.80007C86.7 7.31007 86.045 7.65006 85.333 7.79006C84.621 7.93006 83.884 7.84996 83.215 7.56996C82.547 7.28996 81.976 6.81999 81.574 6.21999C81.172 5.60999 80.958 4.90007 80.958 4.18007C80.958 3.69007 81.055 3.21003 81.243 2.76003C81.432 2.31003 81.708 1.90008 82.056 1.56008C82.403 1.21008 82.816 0.950029 83.269 0.760029C83.722 0.580029 84.207 0.490019 84.694 0.500019Z" fill="#152C5B"/>
<path d="M87.559 10.58H81.83V32.04H87.559V10.58Z" fill="#152C5B"/>
<path fill-rule="evenodd" clip-rule="evenodd" d="M111.259 27.66C110.174 29.21 108.718 30.4701 107.024 31.3101C105.33 32.1501 103.452 32.56 101.561 32.49C98.599 32.49 95.759 31.31 93.665 29.22C91.571 27.12 90.394 24.2799 90.394 21.3199C90.394 18.3599 91.571 15.5201 93.665 13.4301C95.759 11.3301 98.599 10.15 101.561 10.15C103.294 10.15 105.006 10.54 106.565 11.29C108.125 12.05 109.492 13.15 110.561 14.52L106.548 17.95C105.98 17.17 105.237 16.53 104.379 16.08C103.521 15.64 102.571 15.4 101.604 15.39C100.834 15.39 100.072 15.54 99.362 15.84C98.651 16.14 98.007 16.57 97.466 17.12C96.925 17.67 96.498 18.32 96.21 19.03C95.922 19.74 95.779 20.51 95.788 21.28C95.766 22.06 95.903 22.83 96.193 23.55C96.483 24.27 96.918 24.93 97.472 25.47C98.026 26.02 98.687 26.44 99.413 26.72C100.139 27 100.915 27.13 101.692 27.09C102.711 27.07 103.711 26.8101 104.603 26.3101C105.495 25.8201 106.252 25.11 106.81 24.26L111.259 27.66Z" fill="#152C5B"/>
<path fill-rule="evenodd" clip-rule="evenodd" d="M132.065 28.64C130.965 29.85 129.618 30.83 128.115 31.49C126.611 32.15 124.984 32.49 123.341 32.47C121.857 32.54 120.374 32.3 118.988 31.76C117.602 31.23 116.343 30.41 115.29 29.36C114.237 28.31 113.414 27.06 112.872 25.67C112.331 24.29 112.084 22.8099 112.146 21.3199C112.146 15.3599 116.202 10.14 122.556 10.14C128.459 10.14 132.647 15.13 132.647 21.1C132.65 21.65 132.606 22.2 132.516 22.75H117.656C117.789 24.18 118.467 25.5 119.549 26.45C120.631 27.4 122.035 27.89 123.472 27.84C124.49 27.8 125.491 27.57 126.415 27.14C127.34 26.71 128.168 26.1 128.852 25.35L132.065 28.64ZM126.744 18.54C126.602 17.52 126.098 16.57 125.323 15.88C124.547 15.19 123.551 14.8 122.513 14.78C121.428 14.77 120.375 15.15 119.536 15.83C118.697 16.52 118.125 17.48 117.918 18.54H126.744Z" fill="#152C5B"/>
<path fill-rule="evenodd" clip-rule="evenodd" d="M134.871 32.04V10.5799H140.382V12.31C142.081 10.9 144.222 10.13 146.431 10.14C147.842 10.14 149.236 10.44 150.515 11.04C151.794 11.63 152.926 12.4999 153.831 13.5899C155.285 15.2699 156.041 17.4399 156.041 21.0999V32.04H150.298V20.67C150.378 19.94 150.306 19.21 150.088 18.52C149.871 17.83 149.511 17.19 149.033 16.64C148.157 15.83 146.997 15.3999 145.805 15.4499C144.798 15.4799 143.81 15.7299 142.913 16.1899C142.015 16.6399 141.23 17.2999 140.615 18.0899V32.04H134.871Z" fill="#152C5B"/>
<path fill-rule="evenodd" clip-rule="evenodd" d="M170.785 10.14C168.272 10.14 165.816 10.89 163.736 12.3C161.655 13.71 160.045 15.71 159.114 18.04C158.184 20.38 157.976 22.94 158.516 25.39C159.057 27.84 160.323 30.08 162.148 31.8C162.577 32.21 163.138 32.46 163.73 32.49C164.322 32.52 164.905 32.34 165.376 31.98C166.92 30.83 168.794 30.21 170.719 30.21C172.645 30.21 174.519 30.83 176.063 31.98C176.537 32.34 177.124 32.52 177.719 32.48C178.313 32.45 178.876 32.2 179.305 31.79C181.119 30.07 182.377 27.85 182.918 25.41C183.46 22.97 183.26 20.42 182.345 18.09C181.429 15.77 179.84 13.77 177.78 12.35C175.72 10.93 173.285 10.16 170.785 10.14ZM170.785 28.9399C169.96 28.9599 169.139 28.82 168.372 28.51C167.605 28.2 166.909 27.75 166.325 27.16C165.742 26.58 165.283 25.88 164.977 25.12C164.672 24.35 164.525 23.53 164.547 22.7C164.506 21.86 164.638 21.01 164.933 20.22C165.229 19.43 165.682 18.7 166.266 18.09C166.85 17.48 167.552 16.99 168.33 16.65C169.108 16.32 169.946 16.15 170.792 16.15C171.639 16.15 172.476 16.32 173.254 16.65C174.032 16.99 174.734 17.48 175.318 18.09C175.902 18.7 176.356 19.43 176.651 20.22C176.946 21.01 177.078 21.86 177.037 22.7C177.059 23.53 176.912 24.35 176.606 25.12C176.299 25.89 175.839 26.58 175.254 27.17C174.669 27.75 173.971 28.21 173.202 28.51C172.434 28.82 171.611 28.9599 170.785 28.9399Z" fill="#81B5A1"/>
<path fill-rule="evenodd" clip-rule="evenodd" d="M194.557 32.04H190.283L181.777 10.58H187.491L192.158 22.85L196.738 10.58H201.522L206.058 22.85L210.755 10.58H216.484L207.963 32.04H203.703L199.123 19.8199L194.557 32.04Z" fill="#152C5B"/>
<path d="M213.343 29.3199V29.78H212.616V32.04H212.092V29.78H211.365V29.3199H213.343Z" fill="#152C5B"/>
<path d="M215.117 30.95L216.106 29.3199H216.484V32.04H215.96V30.51L215.306 31.59H214.928L214.288 30.51V32.04H213.75V29.3199H214.128L215.117 30.95Z" fill="#152C5B"/>
</svg>
