<svg width="124" height="52" viewBox="0 0 124 52" fill="none" xmlns="http://www.w3.org/2000/svg">
<path fill-rule="evenodd" clip-rule="evenodd" d="M123.08 26.96C123.08 18.21 118.84 11.3 110.74 11.3C102.6 11.3 97.6801 18.21 97.6801 26.89C97.6801 37.18 103.49 42.38 111.83 42.38C115.9 42.38 118.97 41.46 121.3 40.16V33.3199C118.97 34.4799 116.31 35.2 112.92 35.2C109.61 35.2 106.67 34.04 106.29 30H123.01C123.01 29.56 123.08 27.78 123.08 26.96ZM106.19 23.71C106.19 19.85 108.55 18.24 110.7 18.24C112.79 18.24 115.01 19.85 115.01 23.71H106.19Z" fill="#152C5B"/>
<path fill-rule="evenodd" clip-rule="evenodd" d="M84.48 11.3C81.13 11.3 78.97 12.88 77.78 13.97L77.33 11.85H69.812V51.71L78.36 49.9L78.39 40.23C79.62 41.12 81.44 42.38 84.44 42.38C90.56 42.38 96.14 37.46 96.14 26.62C96.1 16.71 90.46 11.3 84.48 11.3ZM82.43 34.86C80.41 34.86 79.21 34.14 78.39 33.25L78.36 20.5699C79.25 19.5799 80.48 18.89 82.43 18.89C85.54 18.89 87.69 22.38 87.69 26.86C87.69 31.44 85.57 34.86 82.43 34.86Z" fill="#152C5B"/>
<path fill-rule="evenodd" clip-rule="evenodd" d="M58.051 9.29004L66.632 7.43994V0.5L58.051 2.31006V9.29004Z" fill="#152C5B"/>
<path d="M66.632 11.88H58.051V41.8H66.632V11.88Z" fill="#152C5B"/>
<path fill-rule="evenodd" clip-rule="evenodd" d="M48.855 14.41L48.308 11.88H40.923V41.8H49.47V21.53C51.487 18.89 54.906 19.37 55.966 19.75V11.88C54.872 11.47 50.872 10.72 48.855 14.41Z" fill="#152C5B"/>
<path fill-rule="evenodd" clip-rule="evenodd" d="M31.761 4.46997L23.419 6.23999L23.385 33.63C23.385 38.69 27.179 42.41 32.239 42.41C35.043 42.41 37.094 41.9 38.222 41.29V34.35C37.128 34.79 31.726 36.36 31.726 31.3V19.17H38.222V11.88H31.726L31.761 4.46997Z" fill="#152C5B"/>
<path fill-rule="evenodd" clip-rule="evenodd" d="M8.65002 20.5699C8.65002 19.2399 9.74403 18.72 11.556 18.72C14.154 18.72 17.436 19.51 20.034 20.91V12.88C17.197 11.75 14.393 11.3 11.556 11.3C4.61503 11.3 0 14.93 0 20.98C0 30.41 12.991 28.91 12.991 32.98C12.991 34.55 11.624 35.0601 9.70898 35.0601C6.87198 35.0601 3.24798 33.9 0.375977 32.33V40.47C3.55598 41.83 6.76898 42.41 9.70898 42.41C16.821 42.41 21.709 38.89 21.709 32.77C21.675 22.59 8.65002 24.3999 8.65002 20.5699Z" fill="#152C5B"/>
</svg>
