<svg width="75" height="55" viewBox="0 0 75 55" fill="none" xmlns="http://www.w3.org/2000/svg">
<path d="M35.73 9.16016V32.3601H16.51L35.73 9.16016ZM35.73 0.830078C35.73 3.38008 34.72 5.83013 32.92 7.63013C31.11 9.43013 28.67 10.4401 26.12 10.4401C23.57 10.4401 21.13 9.43013 19.33 7.63013C17.53 5.83013 16.51 3.38008 16.51 0.830078H35.73ZM38.89 32.3601C38.89 29.8101 39.91 27.3701 41.71 25.5701C43.51 23.7601 45.95 22.7501 48.5 22.7501C51.05 22.7501 53.49 23.7601 55.3 25.5701C57.1 27.3701 58.11 29.8101 58.11 32.3601H38.89ZM38.89 24.0302V0.830078H58.11L38.89 24.0302ZM49.64 52.2101C50.63 52.2301 51.59 51.8602 52.3 51.1802L53.62 52.6001C52.75 53.5001 51.54 54.1702 49.66 54.1702C46.44 54.1702 44.36 52.0301 44.36 49.1401C44.35 48.4801 44.47 47.8201 44.72 47.2001C44.96 46.5901 45.33 46.0302 45.8 45.5602C46.2701 45.0902 46.8199 44.7201 47.4399 44.4701C48.0499 44.2201 48.71 44.1001 49.37 44.1101C52.57 44.1101 54.38 46.5402 54.22 49.9202H46.66C46.93 51.3202 47.91 52.2101 49.64 52.2101ZM51.9399 48.3102C51.7299 47.0002 50.95 46.0302 49.39 46.0302C47.94 46.0302 46.92 46.8602 46.66 48.3102H51.9399ZM0 52.1001L5.81995 46.1901H0.140015V44.3301H8.52002V46.2201L2.69995 52.1301H8.59998V53.9901H0V52.1001ZM15.13 52.2101C16.12 52.2301 17.07 51.8602 17.79 51.1802L19.11 52.6001C18.24 53.5001 17.03 54.1602 15.15 54.1602C11.93 54.1602 9.84998 52.0301 9.84998 49.1401C9.82998 48.4701 9.95995 47.8201 10.2 47.2001C10.45 46.5901 10.82 46.0302 11.28 45.5602C11.75 45.0902 12.31 44.7201 12.92 44.4701C13.54 44.2201 14.19 44.1001 14.86 44.1101C18.06 44.1101 19.87 46.5402 19.71 49.9202H12.15C12.42 51.3202 13.41 52.2101 15.13 52.2101ZM17.4301 48.3102C17.2201 47.0002 16.44 46.0302 14.88 46.0302C13.43 46.0302 12.41 46.8602 12.15 48.3102H17.4301ZM32.28 49.1301C32.28 46.0501 34.58 44.1101 37.13 44.1101C37.74 44.1001 38.34 44.2301 38.9 44.4801C39.45 44.7301 39.95 45.1002 40.35 45.5602V39.8601H42.4V53.9601H40.35V52.6301C39.96 53.1101 39.46 53.5001 38.9 53.7701C38.34 54.0301 37.73 54.1602 37.11 54.1602C34.64 54.1602 32.28 52.2101 32.28 49.1401V49.1301ZM40.46 49.1201C40.45 48.5101 40.25 47.9301 39.91 47.4401C39.56 46.9401 39.08 46.5601 38.51 46.3401C37.95 46.1201 37.34 46.0701 36.75 46.2001C36.16 46.3301 35.6199 46.6302 35.2 47.0602C34.78 47.4902 34.5 48.0401 34.38 48.6301C34.27 49.2201 34.3399 49.8401 34.5699 50.3901C34.8099 50.9501 35.2 51.4201 35.7 51.7501C36.2099 52.0901 36.8 52.2701 37.4 52.2701C39.17 52.2701 40.46 50.8601 40.46 49.1201ZM55.5699 51.9102L57.4301 50.9501C57.6701 51.3801 58.04 51.7501 58.47 52.0001C58.91 52.2401 59.41 52.3701 59.91 52.3601C61.07 52.3601 61.6801 51.7601 61.6801 51.0801C61.6801 50.3101 60.55 50.1401 59.33 49.8801C57.69 49.5301 55.97 48.9901 55.97 47.0101C55.97 45.4801 57.43 44.0701 59.72 44.0901C61.52 44.0901 62.86 44.8001 63.62 45.9601L61.89 46.9001C61.66 46.5501 61.33 46.2601 60.95 46.0701C60.57 45.8801 60.15 45.7802 59.72 45.8002C58.62 45.8002 58.05 46.3401 58.05 46.9601C58.05 47.6501 58.94 47.8502 60.34 48.1602C61.93 48.5102 63.73 49.0302 63.73 51.0402C63.73 52.3702 62.5699 54.1601 59.8199 54.1501C57.7999 54.1501 56.3799 53.3302 55.5699 51.9102ZM69.3199 49.6702L67.6899 51.4501V53.9601H65.63V39.8601H67.6899V49.0901L72.05 44.3002H74.5601L70.77 48.4302L74.66 53.9601H72.33L69.3199 49.6702ZM26.0601 44.1101C23.6201 44.1101 21.5699 45.6901 21.5699 48.3201V53.9701H23.67V48.5801C23.67 47.0001 24.58 46.0502 26.14 46.0502C27.69 46.0502 28.47 47.0001 28.47 48.5801V53.9701H30.55V48.3201C30.55 45.7001 28.4901 44.1101 26.0601 44.1101Z" fill="#152C5B"/>
</svg>
