<svg width="34" height="37" viewBox="0 0 34 37" fill="none" xmlns="http://www.w3.org/2000/svg">
<path d="M30.918 12.91C32.179 16.04 32.343 19.52 31.383 22.76C30.422 26 28.395 28.82 25.628 30.77C22.862 32.72 19.52 33.67 16.144 33.48C14.72 33.39 13.326 33.11 12 32.64M20.333 3.86999C17.249 3.16999 14.016 3.45996 11.098 4.70996C7.98895 6.03996 5.42096 8.37999 3.80996 11.36C3.53696 11.86 3.29396 12.38 3.08196 12.91C2.04296 15.49 1.73997 18.33 2.22597 21.09C2.40697 22.13 2.69496 23.13 3.08196 24.09" stroke="#6A4BFF" stroke-width="2.5" stroke-linecap="round"/>
<path d="M23.6669 8.5033C25.5079 8.5033 27.0003 7.01099 27.0003 5.17004C27.0003 3.3291 25.5079 1.83667 23.6669 1.83667C21.826 1.83667 20.3336 3.3291 20.3336 5.17004C20.3336 7.01099 21.826 8.5033 23.6669 8.5033Z" stroke="#6A4BFF" stroke-width="2.5"/>
<path d="M8.66693 35.1633C10.5079 35.1633 12.0003 33.6709 12.0003 31.83C12.0003 29.989 10.5079 28.4967 8.66693 28.4967C6.82598 28.4967 5.33362 29.989 5.33362 31.83C5.33362 33.6709 6.82598 35.1633 8.66693 35.1633Z" stroke="#6A4BFF" stroke-width="2.5"/>
<path d="M12.667 15.18L16.396 13.7299C16.784 13.5799 17.216 13.5799 17.604 13.7299L21.333 15.18C21.735 15.34 22 15.73 22 16.16V17.75C22 19.98 20.972 22.0799 19.215 23.4399C17.912 24.4599 16.088 24.4599 14.785 23.4399C13.028 22.0799 12 19.98 12 17.75V16.16C12 15.73 12.265 15.34 12.667 15.18Z" stroke="#6A4BFF" stroke-width="2.5" stroke-linecap="round" stroke-linejoin="round"/>
</svg>
