<svg width="36" height="29" viewBox="0 0 36 29" fill="none" xmlns="http://www.w3.org/2000/svg">
<path d="M9.66699 12.17V13.42C10.357 13.42 10.917 12.86 10.917 12.17H9.66699ZM26.333 12.17H25.083C25.083 12.86 25.643 13.42 26.333 13.42V12.17ZM8.83301 13.42H9.66699V10.92H8.83301V13.42ZM10.917 12.17V10.5H8.41699V12.17H10.917ZM25.083 10.5V12.17H27.583V10.5H25.083ZM26.333 13.42H27.167V10.92H26.333V13.42ZM33.417 19.67C33.417 21.49 32.86 23.07 31.933 24.16C31.022 25.24 29.704 25.92 28 25.92V28.42C30.438 28.42 32.454 27.42 33.841 25.78C35.211 24.16 35.917 21.98 35.917 19.67H33.417ZM18 3.42004C21.912 3.42004 25.083 6.59 25.083 10.5H27.583C27.583 5.21 23.293 0.920044 18 0.920044V3.42004ZM10.917 10.5C10.917 6.59 14.088 3.42004 18 3.42004V0.920044C12.707 0.920044 8.41699 5.21 8.41699 10.5H10.917ZM27.167 13.42C30.619 13.42 33.417 16.21 33.417 19.67H35.917C35.917 14.83 31.999 10.92 27.167 10.92V13.42ZM2.58301 19.67C2.58301 16.21 5.38201 13.42 8.83301 13.42V10.92C4.00101 10.92 0.0830078 14.83 0.0830078 19.67H2.58301ZM8 25.92C6.296 25.92 4.97899 25.24 4.06799 24.16C3.13999 23.07 2.58301 21.49 2.58301 19.67H0.0830078C0.0830078 21.98 0.788997 24.16 2.159 25.78C3.546 27.42 5.562 28.42 8 28.42V25.92ZM8 28.42H28V25.92H8V28.42Z" fill="#6A4BFF"/>
</svg>
