<svg width="34" height="33" viewBox="0 0 34 33" fill="none" xmlns="http://www.w3.org/2000/svg">
<path d="M17 31.5C25.2843 31.5 32 24.7843 32 16.5C32 8.21573 25.2843 1.5 17 1.5C8.71573 1.5 2 8.21573 2 16.5C2 24.7843 8.71573 31.5 17 31.5Z" stroke="#6A4BFF" stroke-width="2.5"/>
<path d="M17 24.8334C21.6024 24.8334 25.3334 21.1024 25.3334 16.5C25.3334 11.8976 21.6024 8.16663 17 8.16663C12.3976 8.16663 8.66663 11.8976 8.66663 16.5C8.66663 21.1024 12.3976 24.8334 17 24.8334Z" stroke="#6A4BFF" stroke-width="2.5"/>
<path d="M23.67 23.17L27 26.5" stroke="#6A4BFF" stroke-width="2.5" stroke-linecap="round" stroke-linejoin="round"/>
<path d="M10.33 23.17L7 26.5" stroke="#6A4BFF" stroke-width="2.5" stroke-linecap="round" stroke-linejoin="round"/>
<path d="M10.33 9.82996L7 6.5" stroke="#6A4BFF" stroke-width="2.5" stroke-linecap="round" stroke-linejoin="round"/>
<path d="M23.67 9.82996L27 6.5" stroke="#6A4BFF" stroke-width="2.5" stroke-linecap="round" stroke-linejoin="round"/>
</svg>
