<svg width="125" height="21" viewBox="0 0 125 21" fill="none" xmlns="http://www.w3.org/2000/svg">
<path d="M8.75601 5.96997H10.746C11.99 5.96997 13.284 6.22003 13.284 7.66003C13.284 8.91003 12.488 9.80005 10.149 9.80005H7.95999L8.75601 5.96997ZM0 20.05H5.771L6.965 14.33H10.896C15.871 14.33 19.104 11.05 19.104 7.21997C19.104 3.03997 16.866 1.09998 13.383 1.09998H3.98001L0 20.05Z" fill="#152C5B"/>
<path d="M26.219 7.60999L26.915 13.29H23.284L26.219 7.60999ZM13.731 20.05H19.702L21.144 17.37H27.313L27.612 20.05H33.333L30.448 1.09998H24.677L13.731 20.05Z" fill="#152C5B"/>
<path d="M35.771 13.09L31.692 1.09998H37.562L39.353 8.16003L43.98 1.09998H50.846L41.592 13.04L40.149 20.05H34.328L35.771 13.09Z" fill="#152C5B"/>
<path d="M64.776 12.84C64.428 14.78 62.935 20.5 55.025 20.5C49.502 20.5 46.866 16.92 46.866 11.84C46.866 5.71997 50.697 0.599976 57.164 0.599976C61.393 0.599976 65.174 2.43999 65.274 8.10999H59.751C59.801 6.31999 58.955 5.32996 57.164 5.32996C53.93 5.32996 52.736 9.05999 52.736 11.74C52.736 13.34 53.134 15.72 55.821 15.72C57.662 15.72 58.706 14.48 59.055 12.79L64.776 12.84Z" fill="#152C5B"/>
<path d="M68.159 1.09998H74.03L72.637 7.66003H77.96L79.353 1.09998H85.224L81.244 20.05H75.423L76.965 12.54H71.642L70.05 20.05H64.229L68.159 1.09998Z" fill="#152C5B"/>
<path d="M86.766 1.09998H102.438L101.443 5.96997H91.592L91.095 8.31006H100.249L99.304 12.84H90.149L89.652 15.1801H99.702L98.706 20.05H82.786L86.766 1.09998Z" fill="#152C5B"/>
<path d="M106.468 10L102.09 1.09998H108.458L110.299 6.02002L114.08 1.09998H120.995L113.085 10L117.711 20.05H111.144L109.055 14.78L104.627 20.05H97.463L106.468 10Z" fill="#152C5B"/>
<path d="M121.741 1.93994C121.741 1.24994 122.239 0.699951 122.935 0.699951C123.582 0.699951 124.129 1.24994 124.129 1.93994C124.129 2.63994 123.632 3.18994 122.935 3.18994C122.289 3.18994 121.741 2.63994 121.741 1.93994ZM121.493 1.93994C121.493 2.78994 122.139 3.39001 122.935 3.39001C123.731 3.39001 124.378 2.78994 124.378 1.93994C124.378 1.14994 123.731 0.5 122.935 0.5C122.139 0.5 121.493 1.14994 121.493 1.93994ZM122.388 2.79004H122.637V2.08997H122.886L123.333 2.83997H123.632L123.134 2.08997C123.383 2.08997 123.582 1.94001 123.582 1.64001C123.582 1.30001 123.383 1.15002 122.985 1.15002H122.388V2.79004ZM122.637 1.34998H122.985C123.184 1.34998 123.333 1.39997 123.333 1.58997C123.333 1.83997 123.134 1.89001 122.886 1.89001H122.637V1.34998Z" fill="#152C5B"/>
</svg>
